<svg xmlns="http://www.w3.org/2000/svg" viewBox="0 0 800 500" width="800" height="500" role="img"><rect width="800" height="500" fill="#17171a"/>
<path d="M0 70 Q200 168 400 88 T800 106" stroke="#3a4a52" stroke-width="6" fill="none"/>
<circle cx="100" cy="122" r="16" fill="#f0a437"/><circle cx="200" cy="140" r="16" fill="#d9663f"/><circle cx="300" cy="132" r="16" fill="#e7e3d8"/><circle cx="400" cy="96" r="16" fill="#f0a437"/><circle cx="500" cy="112" r="16" fill="#d9663f"/><circle cx="600" cy="124" r="16" fill="#e7e3d8"/><circle cx="700" cy="112" r="16" fill="#f0a437"/>
<rect y="352" width="800" height="148" fill="#242a2e"/>
<g transform="translate(250,176)"><path d="M0 0 h150 l-52 96 v72 h-46 v-72 z" fill="#e7e3d8"/>
<rect x="34" y="168" width="82" height="12" rx="6" fill="#5d7480"/>
<path d="M12 22 h126 l-30 56 h-66 z" fill="#c2542f"/></g>
<g transform="translate(470,196)"><path d="M0 0 h116 l-14 148 h-88 z" fill="#5d7480" opacity=".9"/>
<path d="M6 66 h104 l-8 82 h-88 z" fill="#f0a437"/></g>
<rect x="92" y="240" width="14" height="14" transform="rotate(20 92 240)" fill="#f0a437"/><rect x="168" y="300" width="14" height="14" transform="rotate(-25 168 300)" fill="#d9663f"/><rect x="642" y="250" width="14" height="14" transform="rotate(35 642 250)" fill="#e7e3d8"/><rect x="712" y="320" width="14" height="14" transform="rotate(-15 712 320)" fill="#f0a437"/><rect x="60" y="330" width="14" height="14" transform="rotate(45 60 330)" fill="#c2542f"/><rect x="740" y="200" width="14" height="14" transform="rotate(10 740 200)" fill="#d9663f"/></svg>