<svg xmlns="http://www.w3.org/2000/svg" viewBox="0 0 800 500" width="800" height="500" role="img"><rect width="800" height="500" fill="#101215"/>
<circle cx="672" cy="106" r="54" fill="#1b2429"/><circle cx="672" cy="106" r="46" fill="#546a74"/>
<path d="M672 70 v38 h28" stroke="#f4f1e8" stroke-width="9" fill="none" stroke-linecap="round"/>
<rect y="330" width="800" height="170" fill="#1b2429"/>
<rect x="60" y="318" width="680" height="16" rx="8" fill="#546a74"/>
<g transform="translate(104,236)"><path d="M0 0 h150 l22 62 h-194 z" fill="#8fa3ac"/><rect x="-24" y="62" width="198" height="13" rx="6" fill="#546a74"/><rect x="16" y="10" width="118" height="42" fill="#1b2429"/><rect x="28" y="20" width="60" height="6" fill="#c98a2b"/><rect x="28" y="32" width="86" height="6" fill="#f4f1e8" opacity=".7"/></g><g transform="translate(330,220)"><path d="M0 0 h150 l22 62 h-194 z" fill="#8fa3ac"/><rect x="-24" y="62" width="198" height="13" rx="6" fill="#546a74"/><rect x="16" y="10" width="118" height="42" fill="#1b2429"/><rect x="28" y="20" width="60" height="6" fill="#c98a2b"/><rect x="28" y="32" width="86" height="6" fill="#f4f1e8" opacity=".7"/></g><g transform="translate(556,236)"><path d="M0 0 h150 l22 62 h-194 z" fill="#8fa3ac"/><rect x="-24" y="62" width="198" height="13" rx="6" fill="#546a74"/><rect x="16" y="10" width="118" height="42" fill="#1b2429"/><rect x="28" y="20" width="60" height="6" fill="#c98a2b"/><rect x="28" y="32" width="86" height="6" fill="#f4f1e8" opacity=".7"/></g>
<circle cx="196" cy="196" r="30" fill="#b8532f"/><circle cx="424" cy="180" r="30" fill="#c98a2b"/>
<circle cx="648" cy="196" r="30" fill="#b8532f"/></svg>